<svg xmlns="http://www.w3.org/2000/svg" viewBox="0 0 600 400">
  <rect width="240" height="400" fill="#006600"/>
  <rect x="240" width="360" height="400" fill="#FF0000"/>
  <circle cx="240" cy="200" r="75" fill="#FFE033" stroke="#000" stroke-width="3"/>
  <circle cx="240" cy="200" r="60" fill="#fff"/>
  <circle cx="240" cy="200" r="45" fill="#006600"/>
  <path d="M 240 165 L 250 185 L 272 185 L 255 197 L 262 217 L 240 203 L 218 217 L 225 197 L 208 185 L 230 185 Z" fill="#FFE033"/>
  <path d="M 215 200 L 225 200 L 225 215 L 215 215 Z" fill="#FF0000"/>
  <path d="M 230 200 L 240 200 L 240 215 L 230 215 Z" fill="#FF0000"/>
  <path d="M 240 200 L 250 200 L 250 215 L 240 215 Z" fill="#FF0000"/>
  <path d="M 255 200 L 265 200 L 265 215 L 255 215 Z" fill="#FF0000"/>
  <circle cx="227" cy="190" r="4" fill="#0000FF"/>
  <circle cx="240" cy="190" r="4" fill="#0000FF"/>
  <circle cx="253" cy="190" r="4" fill="#0000FF"/>
  <circle cx="227" cy="203" r="4" fill="#0000FF"/>
  <circle cx="240" cy="203" r="4" fill="#0000FF"/>
  <circle cx="253" cy="203" r="4" fill="#0000FF"/>
</svg>
